<mxfile host="65bd71144e" modified="2023-02-07T07:41:56.997Z" agent="5.0 (Macintosh; Intel Mac OS X 13_2_0) AppleWebKit/537.36 (KHTML, like Gecko) Code/1.74.3 Chrome/102.0.5005.167 Electron/19.1.8 Safari/537.36" etag="uiMqBpdTeMuZEVsox2jR" version="20.8.13" type="embed" pages="3">
    <diagram id="-FbHWF6xCkzsD_IStMVg" name="Page-1">
        <mxGraphModel dx="1313" dy="1729" grid="1" gridSize="10" guides="1" tooltips="1" connect="1" arrows="1" fold="1" page="1" pageScale="1" pageWidth="850" pageHeight="1100" math="0" shadow="0">
            <root>
                <mxCell id="0"/>
                <mxCell id="1" parent="0"/>
                <mxCell id="7" style="edgeStyle=none;html=1;" parent="1" source="2" target="5" edge="1">
                    <mxGeometry relative="1" as="geometry"/>
                </mxCell>
                <mxCell id="2" value="Amazon S3&lt;br&gt;Issuer証明書格納&lt;br&gt;バケット" style="sketch=0;points=[[0,0,0],[0.25,0,0],[0.5,0,0],[0.75,0,0],[1,0,0],[0,1,0],[0.25,1,0],[0.5,1,0],[0.75,1,0],[1,1,0],[0,0.25,0],[0,0.5,0],[0,0.75,0],[1,0.25,0],[1,0.5,0],[1,0.75,0]];outlineConnect=0;fontColor=#232F3E;gradientColor=#60A337;gradientDirection=north;fillColor=#277116;strokeColor=#ffffff;dashed=0;verticalLabelPosition=bottom;verticalAlign=top;align=center;html=1;fontSize=12;fontStyle=0;aspect=fixed;shape=mxgraph.aws4.resourceIcon;resIcon=mxgraph.aws4.s3;" parent="1" vertex="1">
                    <mxGeometry x="90" y="190" width="78" height="78" as="geometry"/>
                </mxCell>
                <mxCell id="4" style="edgeStyle=none;html=1;" parent="1" source="3" target="2" edge="1">
                    <mxGeometry relative="1" as="geometry"/>
                </mxCell>
                <mxCell id="3" value="Amazon Cloudfront" style="sketch=0;points=[[0,0,0],[0.25,0,0],[0.5,0,0],[0.75,0,0],[1,0,0],[0,1,0],[0.25,1,0],[0.5,1,0],[0.75,1,0],[1,1,0],[0,0.25,0],[0,0.5,0],[0,0.75,0],[1,0.25,0],[1,0.5,0],[1,0.75,0]];outlineConnect=0;fontColor=#232F3E;gradientColor=#945DF2;gradientDirection=north;fillColor=#5A30B5;strokeColor=#ffffff;dashed=0;verticalLabelPosition=bottom;verticalAlign=top;align=center;html=1;fontSize=12;fontStyle=0;aspect=fixed;shape=mxgraph.aws4.resourceIcon;resIcon=mxgraph.aws4.cloudfront;" parent="1" vertex="1">
                    <mxGeometry x="90" y="50" width="78" height="78" as="geometry"/>
                </mxCell>
                <mxCell id="5" value="Issuer Profile" style="shape=note;whiteSpace=wrap;html=1;backgroundOutline=1;darkOpacity=0.05;" parent="1" vertex="1">
                    <mxGeometry x="90" y="330" width="80" height="100" as="geometry"/>
                </mxCell>
                <mxCell id="8" value="revocation-list" style="shape=note;whiteSpace=wrap;html=1;backgroundOutline=1;darkOpacity=0.05;" parent="1" vertex="1">
                    <mxGeometry x="90" y="430" width="80" height="100" as="geometry"/>
                </mxCell>
                <mxCell id="9" value="Issuer環境" style="points=[[0,0],[0.25,0],[0.5,0],[0.75,0],[1,0],[1,0.25],[1,0.5],[1,0.75],[1,1],[0.75,1],[0.5,1],[0.25,1],[0,1],[0,0.75],[0,0.5],[0,0.25]];outlineConnect=0;gradientColor=none;html=1;whiteSpace=wrap;fontSize=12;fontStyle=0;container=1;pointerEvents=0;collapsible=0;recursiveResize=0;shape=mxgraph.aws4.group;grIcon=mxgraph.aws4.group_account;strokeColor=#CD2264;fillColor=none;verticalAlign=top;align=left;spacingLeft=30;fontColor=#CD2264;dashed=0;" parent="1" vertex="1">
                    <mxGeometry x="50" y="10" width="348" height="910" as="geometry"/>
                </mxCell>
                <mxCell id="12" value="Verifiable Credentials(VC)" style="shape=note;whiteSpace=wrap;html=1;backgroundOutline=1;darkOpacity=0.05;" parent="9" vertex="1">
                    <mxGeometry x="204" y="320" width="90" height="101" as="geometry"/>
                </mxCell>
                <mxCell id="14" value="発行" style="text;html=1;align=center;verticalAlign=middle;resizable=0;points=[];autosize=1;strokeColor=none;fillColor=none;" parent="9" vertex="1">
                    <mxGeometry x="244" y="430" width="50" height="30" as="geometry"/>
                </mxCell>
                <mxCell id="55" style="edgeStyle=orthogonalEdgeStyle;html=1;" parent="9" source="50" target="53" edge="1">
                    <mxGeometry relative="1" as="geometry"/>
                </mxCell>
                <mxCell id="50" value="Amazon Cognito" style="sketch=0;points=[[0,0,0],[0.25,0,0],[0.5,0,0],[0.75,0,0],[1,0,0],[0,1,0],[0.25,1,0],[0.5,1,0],[0.75,1,0],[1,1,0],[0,0.25,0],[0,0.5,0],[0,0.75,0],[1,0.25,0],[1,0.5,0],[1,0.75,0]];outlineConnect=0;fontColor=#232F3E;gradientColor=#F54749;gradientDirection=north;fillColor=#C7131F;strokeColor=#ffffff;dashed=0;verticalLabelPosition=bottom;verticalAlign=top;align=center;html=1;fontSize=12;fontStyle=0;aspect=fixed;shape=mxgraph.aws4.resourceIcon;resIcon=mxgraph.aws4.cognito;" parent="9" vertex="1">
                    <mxGeometry x="40" y="720" width="78" height="78" as="geometry"/>
                </mxCell>
                <mxCell id="45" value="Amazon S3&lt;br&gt;証明書発行サイト" style="sketch=0;points=[[0,0,0],[0.25,0,0],[0.5,0,0],[0.75,0,0],[1,0,0],[0,1,0],[0.25,1,0],[0.5,1,0],[0.75,1,0],[1,1,0],[0,0.25,0],[0,0.5,0],[0,0.75,0],[1,0.25,0],[1,0.5,0],[1,0.75,0]];outlineConnect=0;fontColor=#232F3E;gradientColor=#60A337;gradientDirection=north;fillColor=#277116;strokeColor=#ffffff;dashed=0;verticalLabelPosition=bottom;verticalAlign=top;align=center;html=1;fontSize=12;fontStyle=0;aspect=fixed;shape=mxgraph.aws4.resourceIcon;resIcon=mxgraph.aws4.s3;" parent="9" vertex="1">
                    <mxGeometry x="150" y="590" width="78" height="78" as="geometry"/>
                </mxCell>
                <mxCell id="56" style="edgeStyle=orthogonalEdgeStyle;html=1;" parent="9" source="53" target="52" edge="1">
                    <mxGeometry relative="1" as="geometry"/>
                </mxCell>
                <mxCell id="53" value="Amazon API Gateway" style="sketch=0;points=[[0,0,0],[0.25,0,0],[0.5,0,0],[0.75,0,0],[1,0,0],[0,1,0],[0.25,1,0],[0.5,1,0],[0.75,1,0],[1,1,0],[0,0.25,0],[0,0.5,0],[0,0.75,0],[1,0.25,0],[1,0.5,0],[1,0.75,0]];outlineConnect=0;fontColor=#232F3E;gradientColor=#945DF2;gradientDirection=north;fillColor=#5A30B5;strokeColor=#ffffff;dashed=0;verticalLabelPosition=bottom;verticalAlign=top;align=center;html=1;fontSize=12;fontStyle=0;aspect=fixed;shape=mxgraph.aws4.resourceIcon;resIcon=mxgraph.aws4.api_gateway;" parent="9" vertex="1">
                    <mxGeometry x="150" y="720" width="78" height="78" as="geometry"/>
                </mxCell>
                <mxCell id="57" style="edgeStyle=orthogonalEdgeStyle;html=1;" parent="9" source="52" target="12" edge="1">
                    <mxGeometry relative="1" as="geometry"/>
                </mxCell>
                <mxCell id="52" value="AWS Lambda" style="sketch=0;points=[[0,0,0],[0.25,0,0],[0.5,0,0],[0.75,0,0],[1,0,0],[0,1,0],[0.25,1,0],[0.5,1,0],[0.75,1,0],[1,1,0],[0,0.25,0],[0,0.5,0],[0,0.75,0],[1,0.25,0],[1,0.5,0],[1,0.75,0]];outlineConnect=0;fontColor=#232F3E;gradientColor=#F78E04;gradientDirection=north;fillColor=#D05C17;strokeColor=#ffffff;dashed=0;verticalLabelPosition=bottom;verticalAlign=top;align=center;html=1;fontSize=12;fontStyle=0;aspect=fixed;shape=mxgraph.aws4.resourceIcon;resIcon=mxgraph.aws4.lambda;" parent="9" vertex="1">
                    <mxGeometry x="260" y="590" width="78" height="78" as="geometry"/>
                </mxCell>
                <mxCell id="22" value="送付" style="text;html=1;align=center;verticalAlign=middle;resizable=0;points=[];autosize=1;strokeColor=none;fillColor=none;" parent="1" vertex="1">
                    <mxGeometry x="400" y="350" width="50" height="30" as="geometry"/>
                </mxCell>
                <mxCell id="27" value="送付" style="text;html=1;align=center;verticalAlign=middle;resizable=0;points=[];autosize=1;strokeColor=none;fillColor=none;" parent="1" vertex="1">
                    <mxGeometry x="850" y="345" width="50" height="30" as="geometry"/>
                </mxCell>
                <mxCell id="43" style="edgeStyle=orthogonalEdgeStyle;html=1;startArrow=none;startFill=0;endArrow=classic;endFill=1;" parent="1" source="28" target="3" edge="1">
                    <mxGeometry relative="1" as="geometry"/>
                </mxCell>
                <mxCell id="28" value="https://blockcerts.org" style="rounded=0;whiteSpace=wrap;html=1;" parent="1" vertex="1">
                    <mxGeometry x="1020" y="-110" width="120" height="60" as="geometry"/>
                </mxCell>
                <mxCell id="30" value="VCをアップロード" style="text;html=1;align=center;verticalAlign=middle;resizable=0;points=[];autosize=1;strokeColor=none;fillColor=none;" parent="1" vertex="1">
                    <mxGeometry x="935" y="-40" width="120" height="30" as="geometry"/>
                </mxCell>
                <mxCell id="34" value="IssuerのProfileを取得" style="text;html=1;align=center;verticalAlign=middle;resizable=0;points=[];autosize=1;strokeColor=none;fillColor=none;" parent="1" vertex="1">
                    <mxGeometry x="398" y="-110" width="140" height="30" as="geometry"/>
                </mxCell>
                <mxCell id="37" value="検証結果を返す" style="text;html=1;align=center;verticalAlign=middle;resizable=0;points=[];autosize=1;strokeColor=none;fillColor=none;" parent="1" vertex="1">
                    <mxGeometry x="1080" y="-40" width="110" height="30" as="geometry"/>
                </mxCell>
                <mxCell id="49" style="edgeStyle=orthogonalEdgeStyle;html=1;" parent="1" source="48" target="50" edge="1">
                    <mxGeometry relative="1" as="geometry">
                        <Array as="points">
                            <mxPoint x="199" y="860"/>
                            <mxPoint x="60" y="860"/>
                            <mxPoint x="60" y="769"/>
                        </Array>
                    </mxGeometry>
                </mxCell>
                <mxCell id="58" style="edgeStyle=orthogonalEdgeStyle;html=1;" parent="1" source="48" target="51" edge="1">
                    <mxGeometry relative="1" as="geometry">
                        <Array as="points">
                            <mxPoint x="199" y="860"/>
                            <mxPoint x="60" y="860"/>
                            <mxPoint x="60" y="639"/>
                        </Array>
                    </mxGeometry>
                </mxCell>
                <mxCell id="48" value="Issuer" style="sketch=0;outlineConnect=0;fontColor=#232F3E;gradientColor=none;fillColor=#232F3D;strokeColor=none;dashed=0;verticalLabelPosition=bottom;verticalAlign=top;align=center;html=1;fontSize=12;fontStyle=0;aspect=fixed;pointerEvents=1;shape=mxgraph.aws4.user;" parent="1" vertex="1">
                    <mxGeometry x="160" y="940" width="78" height="78" as="geometry"/>
                </mxCell>
                <mxCell id="54" style="edgeStyle=orthogonalEdgeStyle;html=1;" parent="1" source="51" target="45" edge="1">
                    <mxGeometry relative="1" as="geometry"/>
                </mxCell>
                <mxCell id="51" value="Amazon Cloudfront" style="sketch=0;points=[[0,0,0],[0.25,0,0],[0.5,0,0],[0.75,0,0],[1,0,0],[0,1,0],[0.25,1,0],[0.5,1,0],[0.75,1,0],[1,1,0],[0,0.25,0],[0,0.5,0],[0,0.75,0],[1,0.25,0],[1,0.5,0],[1,0.75,0]];outlineConnect=0;fontColor=#232F3E;gradientColor=#945DF2;gradientDirection=north;fillColor=#5A30B5;strokeColor=#ffffff;dashed=0;verticalLabelPosition=bottom;verticalAlign=top;align=center;html=1;fontSize=12;fontStyle=0;aspect=fixed;shape=mxgraph.aws4.resourceIcon;resIcon=mxgraph.aws4.cloudfront;" parent="1" vertex="1">
                    <mxGeometry x="90" y="600" width="78" height="78" as="geometry"/>
                </mxCell>
                <mxCell id="yjs3GV01Z4ebTnVAl1Cg-58" value="Holder環境" style="points=[[0,0],[0.25,0],[0.5,0],[0.75,0],[1,0],[1,0.25],[1,0.5],[1,0.75],[1,1],[0.75,1],[0.5,1],[0.25,1],[0,1],[0,0.75],[0,0.5],[0,0.25]];outlineConnect=0;gradientColor=none;html=1;whiteSpace=wrap;fontSize=12;fontStyle=0;container=1;pointerEvents=0;collapsible=0;recursiveResize=0;shape=mxgraph.aws4.group;grIcon=mxgraph.aws4.group_account;strokeColor=#CD2264;fillColor=none;verticalAlign=top;align=left;spacingLeft=30;fontColor=#CD2264;dashed=0;" parent="1" vertex="1">
                    <mxGeometry x="440" y="10" width="354" height="910" as="geometry"/>
                </mxCell>
                <mxCell id="yjs3GV01Z4ebTnVAl1Cg-61" style="edgeStyle=orthogonalEdgeStyle;html=1;" parent="yjs3GV01Z4ebTnVAl1Cg-58" source="yjs3GV01Z4ebTnVAl1Cg-62" target="yjs3GV01Z4ebTnVAl1Cg-65" edge="1">
                    <mxGeometry relative="1" as="geometry"/>
                </mxCell>
                <mxCell id="yjs3GV01Z4ebTnVAl1Cg-62" value="Amazon Cognito" style="sketch=0;points=[[0,0,0],[0.25,0,0],[0.5,0,0],[0.75,0,0],[1,0,0],[0,1,0],[0.25,1,0],[0.5,1,0],[0.75,1,0],[1,1,0],[0,0.25,0],[0,0.5,0],[0,0.75,0],[1,0.25,0],[1,0.5,0],[1,0.75,0]];outlineConnect=0;fontColor=#232F3E;gradientColor=#F54749;gradientDirection=north;fillColor=#C7131F;strokeColor=#ffffff;dashed=0;verticalLabelPosition=bottom;verticalAlign=top;align=center;html=1;fontSize=12;fontStyle=0;aspect=fixed;shape=mxgraph.aws4.resourceIcon;resIcon=mxgraph.aws4.cognito;" parent="yjs3GV01Z4ebTnVAl1Cg-58" vertex="1">
                    <mxGeometry x="40" y="720" width="78" height="78" as="geometry"/>
                </mxCell>
                <mxCell id="yjs3GV01Z4ebTnVAl1Cg-63" value="Amazon S3&lt;br&gt;Holder用Webサイト" style="sketch=0;points=[[0,0,0],[0.25,0,0],[0.5,0,0],[0.75,0,0],[1,0,0],[0,1,0],[0.25,1,0],[0.5,1,0],[0.75,1,0],[1,1,0],[0,0.25,0],[0,0.5,0],[0,0.75,0],[1,0.25,0],[1,0.5,0],[1,0.75,0]];outlineConnect=0;fontColor=#232F3E;gradientColor=#60A337;gradientDirection=north;fillColor=#277116;strokeColor=#ffffff;dashed=0;verticalLabelPosition=bottom;verticalAlign=top;align=center;html=1;fontSize=12;fontStyle=0;aspect=fixed;shape=mxgraph.aws4.resourceIcon;resIcon=mxgraph.aws4.s3;" parent="yjs3GV01Z4ebTnVAl1Cg-58" vertex="1">
                    <mxGeometry x="150" y="590" width="78" height="78" as="geometry"/>
                </mxCell>
                <mxCell id="yjs3GV01Z4ebTnVAl1Cg-64" style="edgeStyle=orthogonalEdgeStyle;html=1;" parent="yjs3GV01Z4ebTnVAl1Cg-58" source="yjs3GV01Z4ebTnVAl1Cg-65" target="yjs3GV01Z4ebTnVAl1Cg-67" edge="1">
                    <mxGeometry relative="1" as="geometry"/>
                </mxCell>
                <mxCell id="yjs3GV01Z4ebTnVAl1Cg-65" value="Amazon API Gateway" style="sketch=0;points=[[0,0,0],[0.25,0,0],[0.5,0,0],[0.75,0,0],[1,0,0],[0,1,0],[0.25,1,0],[0.5,1,0],[0.75,1,0],[1,1,0],[0,0.25,0],[0,0.5,0],[0,0.75,0],[1,0.25,0],[1,0.5,0],[1,0.75,0]];outlineConnect=0;fontColor=#232F3E;gradientColor=#945DF2;gradientDirection=north;fillColor=#5A30B5;strokeColor=#ffffff;dashed=0;verticalLabelPosition=bottom;verticalAlign=top;align=center;html=1;fontSize=12;fontStyle=0;aspect=fixed;shape=mxgraph.aws4.resourceIcon;resIcon=mxgraph.aws4.api_gateway;" parent="yjs3GV01Z4ebTnVAl1Cg-58" vertex="1">
                    <mxGeometry x="150" y="720" width="78" height="78" as="geometry"/>
                </mxCell>
                <mxCell id="yjs3GV01Z4ebTnVAl1Cg-109" style="edgeStyle=orthogonalEdgeStyle;html=1;" parent="yjs3GV01Z4ebTnVAl1Cg-58" source="yjs3GV01Z4ebTnVAl1Cg-67" target="yjs3GV01Z4ebTnVAl1Cg-106" edge="1">
                    <mxGeometry relative="1" as="geometry">
                        <Array as="points">
                            <mxPoint x="299" y="570"/>
                            <mxPoint x="125" y="570"/>
                        </Array>
                    </mxGeometry>
                </mxCell>
                <mxCell id="yjs3GV01Z4ebTnVAl1Cg-67" value="AWS Lambda" style="sketch=0;points=[[0,0,0],[0.25,0,0],[0.5,0,0],[0.75,0,0],[1,0,0],[0,1,0],[0.25,1,0],[0.5,1,0],[0.75,1,0],[1,1,0],[0,0.25,0],[0,0.5,0],[0,0.75,0],[1,0.25,0],[1,0.5,0],[1,0.75,0]];outlineConnect=0;fontColor=#232F3E;gradientColor=#F78E04;gradientDirection=north;fillColor=#D05C17;strokeColor=#ffffff;dashed=0;verticalLabelPosition=bottom;verticalAlign=top;align=center;html=1;fontSize=12;fontStyle=0;aspect=fixed;shape=mxgraph.aws4.resourceIcon;resIcon=mxgraph.aws4.lambda;" parent="yjs3GV01Z4ebTnVAl1Cg-58" vertex="1">
                    <mxGeometry x="260" y="590" width="78" height="78" as="geometry"/>
                </mxCell>
                <mxCell id="yjs3GV01Z4ebTnVAl1Cg-75" style="edgeStyle=orthogonalEdgeStyle;html=1;" parent="yjs3GV01Z4ebTnVAl1Cg-58" source="yjs3GV01Z4ebTnVAl1Cg-67" target="yjs3GV01Z4ebTnVAl1Cg-74" edge="1">
                    <mxGeometry relative="1" as="geometry"/>
                </mxCell>
                <mxCell id="yjs3GV01Z4ebTnVAl1Cg-69" style="edgeStyle=none;html=1;" parent="yjs3GV01Z4ebTnVAl1Cg-58" source="yjs3GV01Z4ebTnVAl1Cg-68" target="yjs3GV01Z4ebTnVAl1Cg-63" edge="1">
                    <mxGeometry relative="1" as="geometry"/>
                </mxCell>
                <mxCell id="yjs3GV01Z4ebTnVAl1Cg-68" value="Amazon Cloudfront" style="sketch=0;points=[[0,0,0],[0.25,0,0],[0.5,0,0],[0.75,0,0],[1,0,0],[0,1,0],[0.25,1,0],[0.5,1,0],[0.75,1,0],[1,1,0],[0,0.25,0],[0,0.5,0],[0,0.75,0],[1,0.25,0],[1,0.5,0],[1,0.75,0]];outlineConnect=0;fontColor=#232F3E;gradientColor=#945DF2;gradientDirection=north;fillColor=#5A30B5;strokeColor=#ffffff;dashed=0;verticalLabelPosition=bottom;verticalAlign=top;align=center;html=1;fontSize=12;fontStyle=0;aspect=fixed;shape=mxgraph.aws4.resourceIcon;resIcon=mxgraph.aws4.cloudfront;" parent="yjs3GV01Z4ebTnVAl1Cg-58" vertex="1">
                    <mxGeometry x="40" y="590" width="78" height="78" as="geometry"/>
                </mxCell>
                <mxCell id="yjs3GV01Z4ebTnVAl1Cg-74" value="Amazon S3&lt;br&gt;VC保管場所" style="sketch=0;points=[[0,0,0],[0.25,0,0],[0.5,0,0],[0.75,0,0],[1,0,0],[0,1,0],[0.25,1,0],[0.5,1,0],[0.75,1,0],[1,1,0],[0,0.25,0],[0,0.5,0],[0,0.75,0],[1,0.25,0],[1,0.5,0],[1,0.75,0]];outlineConnect=0;fontColor=#232F3E;gradientColor=#60A337;gradientDirection=north;fillColor=#277116;strokeColor=#ffffff;dashed=0;verticalLabelPosition=bottom;verticalAlign=top;align=center;html=1;fontSize=12;fontStyle=0;aspect=fixed;shape=mxgraph.aws4.resourceIcon;resIcon=mxgraph.aws4.s3;" parent="yjs3GV01Z4ebTnVAl1Cg-58" vertex="1">
                    <mxGeometry x="260" y="450" width="78" height="78" as="geometry"/>
                </mxCell>
                <mxCell id="yjs3GV01Z4ebTnVAl1Cg-92" style="edgeStyle=orthogonalEdgeStyle;html=1;" parent="yjs3GV01Z4ebTnVAl1Cg-58" source="yjs3GV01Z4ebTnVAl1Cg-67" target="yjs3GV01Z4ebTnVAl1Cg-74" edge="1">
                    <mxGeometry relative="1" as="geometry"/>
                </mxCell>
                <mxCell id="yjs3GV01Z4ebTnVAl1Cg-106" value="DID Document" style="shape=note;whiteSpace=wrap;html=1;backgroundOutline=1;darkOpacity=0.05;align=left;verticalAlign=top;" parent="yjs3GV01Z4ebTnVAl1Cg-58" vertex="1">
                    <mxGeometry x="40" y="280" width="170" height="190" as="geometry"/>
                </mxCell>
                <mxCell id="20" value="Verifiable Credentials(VC)" style="shape=note;whiteSpace=wrap;html=1;backgroundOutline=1;darkOpacity=0.05;" parent="yjs3GV01Z4ebTnVAl1Cg-58" vertex="1">
                    <mxGeometry x="50" y="320" width="90" height="101" as="geometry"/>
                </mxCell>
                <mxCell id="yjs3GV01Z4ebTnVAl1Cg-112" value="Get VC request&lt;br&gt;with JWT" style="text;html=1;align=center;verticalAlign=middle;resizable=0;points=[];autosize=1;strokeColor=none;fillColor=none;" parent="yjs3GV01Z4ebTnVAl1Cg-58" vertex="1">
                    <mxGeometry x="244" y="860" width="110" height="40" as="geometry"/>
                </mxCell>
                <mxCell id="yjs3GV01Z4ebTnVAl1Cg-71" style="edgeStyle=orthogonalEdgeStyle;html=1;" parent="1" source="yjs3GV01Z4ebTnVAl1Cg-70" target="yjs3GV01Z4ebTnVAl1Cg-62" edge="1">
                    <mxGeometry relative="1" as="geometry">
                        <Array as="points">
                            <mxPoint x="614" y="870"/>
                            <mxPoint x="460" y="870"/>
                            <mxPoint x="460" y="769"/>
                        </Array>
                    </mxGeometry>
                </mxCell>
                <mxCell id="yjs3GV01Z4ebTnVAl1Cg-72" style="edgeStyle=orthogonalEdgeStyle;html=1;" parent="1" source="yjs3GV01Z4ebTnVAl1Cg-70" target="yjs3GV01Z4ebTnVAl1Cg-68" edge="1">
                    <mxGeometry relative="1" as="geometry">
                        <Array as="points">
                            <mxPoint x="614" y="870"/>
                            <mxPoint x="460" y="870"/>
                            <mxPoint x="460" y="639"/>
                        </Array>
                    </mxGeometry>
                </mxCell>
                <mxCell id="yjs3GV01Z4ebTnVAl1Cg-70" value="Holder" style="sketch=0;outlineConnect=0;fontColor=#232F3E;gradientColor=none;fillColor=#232F3D;strokeColor=none;dashed=0;verticalLabelPosition=bottom;verticalAlign=top;align=center;html=1;fontSize=12;fontStyle=0;aspect=fixed;pointerEvents=1;shape=mxgraph.aws4.user;" parent="1" vertex="1">
                    <mxGeometry x="575" y="940" width="78" height="78" as="geometry"/>
                </mxCell>
                <mxCell id="yjs3GV01Z4ebTnVAl1Cg-93" value="Verifier環境" style="points=[[0,0],[0.25,0],[0.5,0],[0.75,0],[1,0],[1,0.25],[1,0.5],[1,0.75],[1,1],[0.75,1],[0.5,1],[0.25,1],[0,1],[0,0.75],[0,0.5],[0,0.25]];outlineConnect=0;gradientColor=none;html=1;whiteSpace=wrap;fontSize=12;fontStyle=0;container=1;pointerEvents=0;collapsible=0;recursiveResize=0;shape=mxgraph.aws4.group;grIcon=mxgraph.aws4.group_account;strokeColor=#CD2264;fillColor=none;verticalAlign=top;align=left;spacingLeft=30;fontColor=#CD2264;dashed=0;" parent="1" vertex="1">
                    <mxGeometry x="830" y="10" width="348" height="910" as="geometry"/>
                </mxCell>
                <mxCell id="yjs3GV01Z4ebTnVAl1Cg-94" style="edgeStyle=orthogonalEdgeStyle;html=1;" parent="yjs3GV01Z4ebTnVAl1Cg-93" source="yjs3GV01Z4ebTnVAl1Cg-95" target="yjs3GV01Z4ebTnVAl1Cg-98" edge="1">
                    <mxGeometry relative="1" as="geometry"/>
                </mxCell>
                <mxCell id="yjs3GV01Z4ebTnVAl1Cg-95" value="Amazon Cognito" style="sketch=0;points=[[0,0,0],[0.25,0,0],[0.5,0,0],[0.75,0,0],[1,0,0],[0,1,0],[0.25,1,0],[0.5,1,0],[0.75,1,0],[1,1,0],[0,0.25,0],[0,0.5,0],[0,0.75,0],[1,0.25,0],[1,0.5,0],[1,0.75,0]];outlineConnect=0;fontColor=#232F3E;gradientColor=#F54749;gradientDirection=north;fillColor=#C7131F;strokeColor=#ffffff;dashed=0;verticalLabelPosition=bottom;verticalAlign=top;align=center;html=1;fontSize=12;fontStyle=0;aspect=fixed;shape=mxgraph.aws4.resourceIcon;resIcon=mxgraph.aws4.cognito;" parent="yjs3GV01Z4ebTnVAl1Cg-93" vertex="1">
                    <mxGeometry x="40" y="720" width="78" height="78" as="geometry"/>
                </mxCell>
                <mxCell id="yjs3GV01Z4ebTnVAl1Cg-96" value="Amazon S3&lt;br&gt;Verifier用Webサイト" style="sketch=0;points=[[0,0,0],[0.25,0,0],[0.5,0,0],[0.75,0,0],[1,0,0],[0,1,0],[0.25,1,0],[0.5,1,0],[0.75,1,0],[1,1,0],[0,0.25,0],[0,0.5,0],[0,0.75,0],[1,0.25,0],[1,0.5,0],[1,0.75,0]];outlineConnect=0;fontColor=#232F3E;gradientColor=#60A337;gradientDirection=north;fillColor=#277116;strokeColor=#ffffff;dashed=0;verticalLabelPosition=bottom;verticalAlign=top;align=center;html=1;fontSize=12;fontStyle=0;aspect=fixed;shape=mxgraph.aws4.resourceIcon;resIcon=mxgraph.aws4.s3;" parent="yjs3GV01Z4ebTnVAl1Cg-93" vertex="1">
                    <mxGeometry x="150" y="590" width="78" height="78" as="geometry"/>
                </mxCell>
                <mxCell id="yjs3GV01Z4ebTnVAl1Cg-97" style="edgeStyle=orthogonalEdgeStyle;html=1;" parent="yjs3GV01Z4ebTnVAl1Cg-93" source="yjs3GV01Z4ebTnVAl1Cg-98" target="yjs3GV01Z4ebTnVAl1Cg-100" edge="1">
                    <mxGeometry relative="1" as="geometry"/>
                </mxCell>
                <mxCell id="yjs3GV01Z4ebTnVAl1Cg-98" value="Amazon API Gateway" style="sketch=0;points=[[0,0,0],[0.25,0,0],[0.5,0,0],[0.75,0,0],[1,0,0],[0,1,0],[0.25,1,0],[0.5,1,0],[0.75,1,0],[1,1,0],[0,0.25,0],[0,0.5,0],[0,0.75,0],[1,0.25,0],[1,0.5,0],[1,0.75,0]];outlineConnect=0;fontColor=#232F3E;gradientColor=#945DF2;gradientDirection=north;fillColor=#5A30B5;strokeColor=#ffffff;dashed=0;verticalLabelPosition=bottom;verticalAlign=top;align=center;html=1;fontSize=12;fontStyle=0;aspect=fixed;shape=mxgraph.aws4.resourceIcon;resIcon=mxgraph.aws4.api_gateway;" parent="yjs3GV01Z4ebTnVAl1Cg-93" vertex="1">
                    <mxGeometry x="150" y="720" width="78" height="78" as="geometry"/>
                </mxCell>
                <mxCell id="yjs3GV01Z4ebTnVAl1Cg-100" value="AWS Lambda" style="sketch=0;points=[[0,0,0],[0.25,0,0],[0.5,0,0],[0.75,0,0],[1,0,0],[0,1,0],[0.25,1,0],[0.5,1,0],[0.75,1,0],[1,1,0],[0,0.25,0],[0,0.5,0],[0,0.75,0],[1,0.25,0],[1,0.5,0],[1,0.75,0]];outlineConnect=0;fontColor=#232F3E;gradientColor=#F78E04;gradientDirection=north;fillColor=#D05C17;strokeColor=#ffffff;dashed=0;verticalLabelPosition=bottom;verticalAlign=top;align=center;html=1;fontSize=12;fontStyle=0;aspect=fixed;shape=mxgraph.aws4.resourceIcon;resIcon=mxgraph.aws4.lambda;" parent="yjs3GV01Z4ebTnVAl1Cg-93" vertex="1">
                    <mxGeometry x="260" y="590" width="78" height="78" as="geometry"/>
                </mxCell>
                <mxCell id="yjs3GV01Z4ebTnVAl1Cg-101" style="edgeStyle=none;html=1;" parent="yjs3GV01Z4ebTnVAl1Cg-93" source="yjs3GV01Z4ebTnVAl1Cg-102" target="yjs3GV01Z4ebTnVAl1Cg-96" edge="1">
                    <mxGeometry relative="1" as="geometry"/>
                </mxCell>
                <mxCell id="yjs3GV01Z4ebTnVAl1Cg-102" value="Amazon Cloudfront" style="sketch=0;points=[[0,0,0],[0.25,0,0],[0.5,0,0],[0.75,0,0],[1,0,0],[0,1,0],[0.25,1,0],[0.5,1,0],[0.75,1,0],[1,1,0],[0,0.25,0],[0,0.5,0],[0,0.75,0],[1,0.25,0],[1,0.5,0],[1,0.75,0]];outlineConnect=0;fontColor=#232F3E;gradientColor=#945DF2;gradientDirection=north;fillColor=#5A30B5;strokeColor=#ffffff;dashed=0;verticalLabelPosition=bottom;verticalAlign=top;align=center;html=1;fontSize=12;fontStyle=0;aspect=fixed;shape=mxgraph.aws4.resourceIcon;resIcon=mxgraph.aws4.cloudfront;" parent="yjs3GV01Z4ebTnVAl1Cg-93" vertex="1">
                    <mxGeometry x="40" y="590" width="78" height="78" as="geometry"/>
                </mxCell>
                <mxCell id="yjs3GV01Z4ebTnVAl1Cg-107" value="DID Document" style="shape=note;whiteSpace=wrap;html=1;backgroundOutline=1;darkOpacity=0.05;align=left;verticalAlign=top;" parent="yjs3GV01Z4ebTnVAl1Cg-93" vertex="1">
                    <mxGeometry x="178" y="270" width="170" height="190" as="geometry"/>
                </mxCell>
                <mxCell id="yjs3GV01Z4ebTnVAl1Cg-108" value="Verifiable Credentials(VC)" style="shape=note;whiteSpace=wrap;html=1;backgroundOutline=1;darkOpacity=0.05;" parent="yjs3GV01Z4ebTnVAl1Cg-93" vertex="1">
                    <mxGeometry x="188" y="310" width="90" height="101" as="geometry"/>
                </mxCell>
                <mxCell id="yjs3GV01Z4ebTnVAl1Cg-88" style="edgeStyle=orthogonalEdgeStyle;html=1;" parent="1" source="yjs3GV01Z4ebTnVAl1Cg-104" target="yjs3GV01Z4ebTnVAl1Cg-95" edge="1">
                    <mxGeometry relative="1" as="geometry">
                        <Array as="points">
                            <mxPoint x="1001" y="860"/>
                            <mxPoint x="850" y="860"/>
                            <mxPoint x="850" y="769"/>
                        </Array>
                    </mxGeometry>
                </mxCell>
                <mxCell id="yjs3GV01Z4ebTnVAl1Cg-89" style="edgeStyle=orthogonalEdgeStyle;html=1;" parent="1" source="yjs3GV01Z4ebTnVAl1Cg-104" target="yjs3GV01Z4ebTnVAl1Cg-102" edge="1">
                    <mxGeometry relative="1" as="geometry">
                        <Array as="points">
                            <mxPoint x="1001" y="860"/>
                            <mxPoint x="850" y="860"/>
                            <mxPoint x="850" y="639"/>
                        </Array>
                    </mxGeometry>
                </mxCell>
                <mxCell id="yjs3GV01Z4ebTnVAl1Cg-111" style="edgeStyle=orthogonalEdgeStyle;html=1;" parent="1" source="yjs3GV01Z4ebTnVAl1Cg-104" target="yjs3GV01Z4ebTnVAl1Cg-65" edge="1">
                    <mxGeometry relative="1" as="geometry">
                        <Array as="points">
                            <mxPoint x="1001" y="870"/>
                            <mxPoint x="629" y="870"/>
                        </Array>
                    </mxGeometry>
                </mxCell>
                <mxCell id="yjs3GV01Z4ebTnVAl1Cg-104" value="Verifier" style="sketch=0;outlineConnect=0;fontColor=#232F3E;gradientColor=none;fillColor=#232F3D;strokeColor=none;dashed=0;verticalLabelPosition=bottom;verticalAlign=top;align=center;html=1;fontSize=12;fontStyle=0;aspect=fixed;pointerEvents=1;shape=mxgraph.aws4.user;" parent="1" vertex="1">
                    <mxGeometry x="962" y="940" width="78" height="78" as="geometry"/>
                </mxCell>
                <mxCell id="21" style="edgeStyle=none;html=1;" parent="1" source="12" target="20" edge="1">
                    <mxGeometry relative="1" as="geometry"/>
                </mxCell>
                <mxCell id="26" style="edgeStyle=none;html=1;" parent="1" edge="1">
                    <mxGeometry relative="1" as="geometry">
                        <mxPoint x="650" y="380" as="sourcePoint"/>
                        <mxPoint x="1010" y="380" as="targetPoint"/>
                    </mxGeometry>
                </mxCell>
                <mxCell id="29" style="edgeStyle=none;html=1;entryX=0.25;entryY=1;entryDx=0;entryDy=0;exitX=0;exitY=0;exitDx=30;exitDy=0;exitPerimeter=0;" parent="1" source="yjs3GV01Z4ebTnVAl1Cg-108" target="28" edge="1">
                    <mxGeometry relative="1" as="geometry">
                        <mxPoint x="1052.37" y="327.6869999999999" as="sourcePoint"/>
                    </mxGeometry>
                </mxCell>
                <mxCell id="36" style="edgeStyle=none;html=1;entryX=-0.025;entryY=-0.096;entryDx=0;entryDy=0;exitX=0;exitY=0;exitDx=60;exitDy=0;exitPerimeter=0;startArrow=classic;startFill=1;endArrow=none;endFill=0;entryPerimeter=0;" parent="1" source="yjs3GV01Z4ebTnVAl1Cg-108" target="37" edge="1">
                    <mxGeometry relative="1" as="geometry">
                        <mxPoint x="1081" y="280" as="sourcePoint"/>
                        <mxPoint x="1083" y="-50" as="targetPoint"/>
                    </mxGeometry>
                </mxCell>
                <mxCell id="yjs3GV01Z4ebTnVAl1Cg-110" value="DID Document&lt;br&gt;の生成" style="text;html=1;align=center;verticalAlign=middle;resizable=0;points=[];autosize=1;strokeColor=none;fillColor=none;" parent="1" vertex="1">
                    <mxGeometry x="570" y="540" width="100" height="40" as="geometry"/>
                </mxCell>
            </root>
        </mxGraphModel>
    </diagram>
    <diagram id="aBgqkEgx_34N2SiJiu-O" name="Page-2">
        <mxGraphModel dx="1313" dy="1729" grid="1" gridSize="10" guides="1" tooltips="1" connect="1" arrows="1" fold="1" page="1" pageScale="1" pageWidth="850" pageHeight="1100" math="0" shadow="0">
            <root>
                <mxCell id="0"/>
                <mxCell id="1" parent="0"/>
                <mxCell id="lJupcZGPIyBvHbKTPcOm-67" style="edgeStyle=orthogonalEdgeStyle;html=1;" parent="1" source="lJupcZGPIyBvHbKTPcOm-1" target="lJupcZGPIyBvHbKTPcOm-62" edge="1">
                    <mxGeometry relative="1" as="geometry">
                        <Array as="points">
                            <mxPoint x="415" y="120"/>
                            <mxPoint x="925" y="120"/>
                        </Array>
                    </mxGeometry>
                </mxCell>
                <mxCell id="lJupcZGPIyBvHbKTPcOm-1" value="Holder" style="shape=umlActor;verticalLabelPosition=bottom;verticalAlign=top;html=1;outlineConnect=0;" parent="1" vertex="1">
                    <mxGeometry x="400" y="20" width="30" height="60" as="geometry"/>
                </mxCell>
                <mxCell id="lJupcZGPIyBvHbKTPcOm-2" value="Issuer" style="shape=umlActor;verticalLabelPosition=bottom;verticalAlign=top;html=1;outlineConnect=0;" parent="1" vertex="1">
                    <mxGeometry x="10" y="80" width="30" height="60" as="geometry"/>
                </mxCell>
                <mxCell id="lJupcZGPIyBvHbKTPcOm-8" style="edgeStyle=none;html=1;" parent="1" source="lJupcZGPIyBvHbKTPcOm-5" target="lJupcZGPIyBvHbKTPcOm-4" edge="1">
                    <mxGeometry relative="1" as="geometry"/>
                </mxCell>
                <mxCell id="lJupcZGPIyBvHbKTPcOm-16" style="edgeStyle=none;html=1;entryX=0;entryY=0.5;entryDx=0;entryDy=0;" parent="1" source="lJupcZGPIyBvHbKTPcOm-5" target="lJupcZGPIyBvHbKTPcOm-12" edge="1">
                    <mxGeometry relative="1" as="geometry"/>
                </mxCell>
                <mxCell id="lJupcZGPIyBvHbKTPcOm-17" style="edgeStyle=none;html=1;" parent="1" source="lJupcZGPIyBvHbKTPcOm-5" target="lJupcZGPIyBvHbKTPcOm-11" edge="1">
                    <mxGeometry relative="1" as="geometry"/>
                </mxCell>
                <mxCell id="lJupcZGPIyBvHbKTPcOm-18" style="edgeStyle=none;html=1;" parent="1" source="lJupcZGPIyBvHbKTPcOm-5" target="lJupcZGPIyBvHbKTPcOm-10" edge="1">
                    <mxGeometry relative="1" as="geometry"/>
                </mxCell>
                <mxCell id="lJupcZGPIyBvHbKTPcOm-19" style="edgeStyle=none;html=1;" parent="1" source="lJupcZGPIyBvHbKTPcOm-5" target="lJupcZGPIyBvHbKTPcOm-9" edge="1">
                    <mxGeometry relative="1" as="geometry"/>
                </mxCell>
                <mxCell id="lJupcZGPIyBvHbKTPcOm-5" value="秘密鍵" style="shape=image;html=1;verticalAlign=top;verticalLabelPosition=bottom;labelBackgroundColor=#ffffff;imageAspect=0;aspect=fixed;image=https://cdn0.iconfinder.com/data/icons/phosphor-fill-vol-3/256/key-fill-128.png" parent="1" vertex="1">
                    <mxGeometry x="70" y="90" width="30" height="30" as="geometry"/>
                </mxCell>
                <mxCell id="lJupcZGPIyBvHbKTPcOm-30" style="edgeStyle=orthogonalEdgeStyle;html=1;entryX=0.5;entryY=1;entryDx=0;entryDy=0;entryPerimeter=0;" parent="1" source="lJupcZGPIyBvHbKTPcOm-4" target="lJupcZGPIyBvHbKTPcOm-29" edge="1">
                    <mxGeometry relative="1" as="geometry"/>
                </mxCell>
                <mxCell id="lJupcZGPIyBvHbKTPcOm-4" value="Wallet" style="shape=image;html=1;verticalAlign=top;verticalLabelPosition=bottom;labelBackgroundColor=#ffffff;imageAspect=0;aspect=fixed;image=https://cdn1.iconfinder.com/data/icons/ionicons-outline-vol-2/512/wallet-outline-128.png" parent="1" vertex="1">
                    <mxGeometry x="70" y="10" width="30" height="30" as="geometry"/>
                </mxCell>
                <mxCell id="lJupcZGPIyBvHbKTPcOm-23" style="edgeStyle=none;html=1;" parent="1" source="lJupcZGPIyBvHbKTPcOm-9" target="lJupcZGPIyBvHbKTPcOm-1" edge="1">
                    <mxGeometry relative="1" as="geometry"/>
                </mxCell>
                <mxCell id="lJupcZGPIyBvHbKTPcOm-9" value="VC" style="rounded=1;whiteSpace=wrap;html=1;" parent="1" vertex="1">
                    <mxGeometry x="184" y="60" width="60" height="30" as="geometry"/>
                </mxCell>
                <mxCell id="lJupcZGPIyBvHbKTPcOm-24" style="edgeStyle=none;html=1;" parent="1" source="lJupcZGPIyBvHbKTPcOm-10" edge="1">
                    <mxGeometry relative="1" as="geometry">
                        <mxPoint x="400" y="50" as="targetPoint"/>
                    </mxGeometry>
                </mxCell>
                <mxCell id="lJupcZGPIyBvHbKTPcOm-10" value="VC" style="rounded=1;whiteSpace=wrap;html=1;" parent="1" vertex="1">
                    <mxGeometry x="184" y="90" width="60" height="30" as="geometry"/>
                </mxCell>
                <mxCell id="lJupcZGPIyBvHbKTPcOm-32" style="html=1;" parent="1" source="lJupcZGPIyBvHbKTPcOm-11" target="lJupcZGPIyBvHbKTPcOm-22" edge="1">
                    <mxGeometry relative="1" as="geometry">
                        <mxPoint x="400" y="50" as="targetPoint"/>
                    </mxGeometry>
                </mxCell>
                <mxCell id="lJupcZGPIyBvHbKTPcOm-11" value="VC" style="rounded=1;whiteSpace=wrap;html=1;" parent="1" vertex="1">
                    <mxGeometry x="184" y="120" width="60" height="30" as="geometry"/>
                </mxCell>
                <mxCell id="lJupcZGPIyBvHbKTPcOm-26" style="edgeStyle=none;html=1;" parent="1" source="lJupcZGPIyBvHbKTPcOm-12" target="lJupcZGPIyBvHbKTPcOm-22" edge="1">
                    <mxGeometry relative="1" as="geometry"/>
                </mxCell>
                <mxCell id="lJupcZGPIyBvHbKTPcOm-12" value="VC" style="rounded=1;whiteSpace=wrap;html=1;" parent="1" vertex="1">
                    <mxGeometry x="184" y="150" width="60" height="30" as="geometry"/>
                </mxCell>
                <mxCell id="lJupcZGPIyBvHbKTPcOm-20" value="Verifiable Credential&lt;br&gt;(Json Format)" style="text;html=1;align=center;verticalAlign=middle;resizable=0;points=[];autosize=1;strokeColor=none;fillColor=none;" parent="1" vertex="1">
                    <mxGeometry x="149" y="250" width="130" height="40" as="geometry"/>
                </mxCell>
                <mxCell id="lJupcZGPIyBvHbKTPcOm-21" value="(1)電子署名" style="text;html=1;align=center;verticalAlign=middle;resizable=0;points=[];autosize=1;strokeColor=none;fillColor=none;" parent="1" vertex="1">
                    <mxGeometry x="80" y="70" width="90" height="30" as="geometry"/>
                </mxCell>
                <mxCell id="lJupcZGPIyBvHbKTPcOm-22" value="Holder" style="shape=umlActor;verticalLabelPosition=bottom;verticalAlign=top;html=1;outlineConnect=0;" parent="1" vertex="1">
                    <mxGeometry x="400" y="150" width="30" height="60" as="geometry"/>
                </mxCell>
                <mxCell id="lJupcZGPIyBvHbKTPcOm-29" value="Amazon Managed Blockchain" style="sketch=0;points=[[0,0,0],[0.25,0,0],[0.5,0,0],[0.75,0,0],[1,0,0],[0,1,0],[0.25,1,0],[0.5,1,0],[0.75,1,0],[1,1,0],[0,0.25,0],[0,0.5,0],[0,0.75,0],[1,0.25,0],[1,0.5,0],[1,0.75,0]];outlineConnect=0;fontColor=#232F3E;gradientColor=#F78E04;gradientDirection=north;fillColor=#D05C17;strokeColor=#ffffff;dashed=0;verticalLabelPosition=bottom;verticalAlign=top;align=center;html=1;fontSize=12;fontStyle=0;aspect=fixed;shape=mxgraph.aws4.resourceIcon;resIcon=mxgraph.aws4.managed_blockchain;" parent="1" vertex="1">
                    <mxGeometry x="65" y="-140" width="40" height="40" as="geometry"/>
                </mxCell>
                <mxCell id="lJupcZGPIyBvHbKTPcOm-31" value="(2)VCの存在証明&lt;br&gt;をBCに記録" style="text;html=1;align=center;verticalAlign=middle;resizable=0;points=[];autosize=1;strokeColor=none;fillColor=none;" parent="1" vertex="1">
                    <mxGeometry x="85" y="-62" width="110" height="40" as="geometry"/>
                </mxCell>
                <mxCell id="lJupcZGPIyBvHbKTPcOm-41" style="html=1;" parent="1" source="lJupcZGPIyBvHbKTPcOm-33" target="lJupcZGPIyBvHbKTPcOm-36" edge="1">
                    <mxGeometry relative="1" as="geometry"/>
                </mxCell>
                <mxCell id="lJupcZGPIyBvHbKTPcOm-50" style="edgeStyle=orthogonalEdgeStyle;html=1;" parent="1" target="lJupcZGPIyBvHbKTPcOm-29" edge="1">
                    <mxGeometry relative="1" as="geometry">
                        <mxPoint x="485" y="-60" as="sourcePoint"/>
                        <Array as="points">
                            <mxPoint x="485" y="-120"/>
                        </Array>
                    </mxGeometry>
                </mxCell>
                <mxCell id="lJupcZGPIyBvHbKTPcOm-61" style="edgeStyle=orthogonalEdgeStyle;html=1;" parent="1" source="lJupcZGPIyBvHbKTPcOm-33" target="lJupcZGPIyBvHbKTPcOm-57" edge="1">
                    <mxGeometry relative="1" as="geometry"/>
                </mxCell>
                <mxCell id="lJupcZGPIyBvHbKTPcOm-33" value="秘密鍵" style="shape=image;html=1;verticalAlign=top;verticalLabelPosition=bottom;labelBackgroundColor=#ffffff;imageAspect=0;aspect=fixed;image=https://cdn0.iconfinder.com/data/icons/phosphor-fill-vol-3/256/key-fill-128.png" parent="1" vertex="1">
                    <mxGeometry x="470" y="7" width="30" height="30" as="geometry"/>
                </mxCell>
                <mxCell id="lJupcZGPIyBvHbKTPcOm-39" style="edgeStyle=orthogonalEdgeStyle;html=1;" parent="1" source="lJupcZGPIyBvHbKTPcOm-36" target="lJupcZGPIyBvHbKTPcOm-37" edge="1">
                    <mxGeometry relative="1" as="geometry"/>
                </mxCell>
                <mxCell id="lJupcZGPIyBvHbKTPcOm-40" style="edgeStyle=orthogonalEdgeStyle;html=1;" parent="1" source="lJupcZGPIyBvHbKTPcOm-36" target="lJupcZGPIyBvHbKTPcOm-38" edge="1">
                    <mxGeometry relative="1" as="geometry"/>
                </mxCell>
                <mxCell id="lJupcZGPIyBvHbKTPcOm-36" value="DID Document" style="rounded=1;whiteSpace=wrap;html=1;" parent="1" vertex="1">
                    <mxGeometry x="550" y="9" width="60" height="30" as="geometry"/>
                </mxCell>
                <mxCell id="lJupcZGPIyBvHbKTPcOm-37" value="VC" style="rounded=1;whiteSpace=wrap;html=1;" parent="1" vertex="1">
                    <mxGeometry x="640" y="-5" width="60" height="30" as="geometry"/>
                </mxCell>
                <mxCell id="lJupcZGPIyBvHbKTPcOm-38" value="VC" style="rounded=1;whiteSpace=wrap;html=1;" parent="1" vertex="1">
                    <mxGeometry x="640" y="25" width="60" height="30" as="geometry"/>
                </mxCell>
                <mxCell id="lJupcZGPIyBvHbKTPcOm-42" style="html=1;" parent="1" source="lJupcZGPIyBvHbKTPcOm-43" target="lJupcZGPIyBvHbKTPcOm-46" edge="1">
                    <mxGeometry relative="1" as="geometry"/>
                </mxCell>
                <mxCell id="lJupcZGPIyBvHbKTPcOm-43" value="秘密鍵" style="shape=image;html=1;verticalAlign=top;verticalLabelPosition=bottom;labelBackgroundColor=#ffffff;imageAspect=0;aspect=fixed;image=https://cdn0.iconfinder.com/data/icons/phosphor-fill-vol-3/256/key-fill-128.png" parent="1" vertex="1">
                    <mxGeometry x="470" y="57" width="30" height="30" as="geometry"/>
                </mxCell>
                <mxCell id="lJupcZGPIyBvHbKTPcOm-45" style="edgeStyle=orthogonalEdgeStyle;html=1;" parent="1" source="lJupcZGPIyBvHbKTPcOm-46" target="lJupcZGPIyBvHbKTPcOm-48" edge="1">
                    <mxGeometry relative="1" as="geometry"/>
                </mxCell>
                <mxCell id="lJupcZGPIyBvHbKTPcOm-46" value="DID Document" style="rounded=1;whiteSpace=wrap;html=1;" parent="1" vertex="1">
                    <mxGeometry x="550" y="59" width="60" height="30" as="geometry"/>
                </mxCell>
                <mxCell id="lJupcZGPIyBvHbKTPcOm-48" value="VC" style="rounded=1;whiteSpace=wrap;html=1;" parent="1" vertex="1">
                    <mxGeometry x="640" y="59" width="60" height="30" as="geometry"/>
                </mxCell>
                <mxCell id="lJupcZGPIyBvHbKTPcOm-49" value="(4)HolderはN個の秘密鍵を作成可能&lt;br&gt;1個の秘密鍵から1個のDID Documentを作成可能&lt;br&gt;1個のDID Documentに複数のVCを関連づけることが可能" style="text;html=1;align=left;verticalAlign=middle;resizable=0;points=[];autosize=1;strokeColor=none;fillColor=none;" parent="1" vertex="1">
                    <mxGeometry x="520" y="-82" width="330" height="60" as="geometry"/>
                </mxCell>
                <mxCell id="lJupcZGPIyBvHbKTPcOm-51" value="(5)DID DocumentとVCの関連付けを登録するTransaction&lt;br&gt;ガス代が必要" style="text;html=1;align=center;verticalAlign=middle;resizable=0;points=[];autosize=1;strokeColor=none;fillColor=none;" parent="1" vertex="1">
                    <mxGeometry x="139" y="-155" width="330" height="40" as="geometry"/>
                </mxCell>
                <mxCell id="lJupcZGPIyBvHbKTPcOm-52" style="html=1;" parent="1" source="lJupcZGPIyBvHbKTPcOm-53" target="lJupcZGPIyBvHbKTPcOm-55" edge="1">
                    <mxGeometry relative="1" as="geometry"/>
                </mxCell>
                <mxCell id="lJupcZGPIyBvHbKTPcOm-53" value="秘密鍵" style="shape=image;html=1;verticalAlign=top;verticalLabelPosition=bottom;labelBackgroundColor=#ffffff;imageAspect=0;aspect=fixed;image=https://cdn0.iconfinder.com/data/icons/phosphor-fill-vol-3/256/key-fill-128.png" parent="1" vertex="1">
                    <mxGeometry x="470" y="164" width="30" height="30" as="geometry"/>
                </mxCell>
                <mxCell id="lJupcZGPIyBvHbKTPcOm-54" style="edgeStyle=orthogonalEdgeStyle;html=1;" parent="1" source="lJupcZGPIyBvHbKTPcOm-55" target="lJupcZGPIyBvHbKTPcOm-56" edge="1">
                    <mxGeometry relative="1" as="geometry"/>
                </mxCell>
                <mxCell id="lJupcZGPIyBvHbKTPcOm-55" value="DID Document" style="rounded=1;whiteSpace=wrap;html=1;" parent="1" vertex="1">
                    <mxGeometry x="550" y="166" width="60" height="30" as="geometry"/>
                </mxCell>
                <mxCell id="lJupcZGPIyBvHbKTPcOm-56" value="VC" style="rounded=1;whiteSpace=wrap;html=1;" parent="1" vertex="1">
                    <mxGeometry x="640" y="166" width="60" height="30" as="geometry"/>
                </mxCell>
                <mxCell id="lJupcZGPIyBvHbKTPcOm-65" style="edgeStyle=orthogonalEdgeStyle;html=1;" parent="1" source="lJupcZGPIyBvHbKTPcOm-57" target="lJupcZGPIyBvHbKTPcOm-29" edge="1">
                    <mxGeometry relative="1" as="geometry">
                        <Array as="points">
                            <mxPoint x="485" y="-110"/>
                        </Array>
                    </mxGeometry>
                </mxCell>
                <mxCell id="lJupcZGPIyBvHbKTPcOm-57" value="Wallet" style="shape=image;html=1;verticalAlign=top;verticalLabelPosition=bottom;labelBackgroundColor=#ffffff;imageAspect=0;aspect=fixed;image=https://cdn1.iconfinder.com/data/icons/ionicons-outline-vol-2/512/wallet-outline-128.png" parent="1" vertex="1">
                    <mxGeometry x="470" y="-67" width="30" height="30" as="geometry"/>
                </mxCell>
                <mxCell id="lJupcZGPIyBvHbKTPcOm-63" style="edgeStyle=orthogonalEdgeStyle;html=1;" parent="1" source="lJupcZGPIyBvHbKTPcOm-79" target="lJupcZGPIyBvHbKTPcOm-1" edge="1">
                    <mxGeometry relative="1" as="geometry">
                        <Array as="points">
                            <mxPoint x="985" y="140"/>
                            <mxPoint x="415" y="140"/>
                        </Array>
                    </mxGeometry>
                </mxCell>
                <mxCell id="lJupcZGPIyBvHbKTPcOm-69" style="edgeStyle=orthogonalEdgeStyle;html=1;entryX=0.5;entryY=0;entryDx=0;entryDy=0;entryPerimeter=0;" parent="1" source="lJupcZGPIyBvHbKTPcOm-62" target="lJupcZGPIyBvHbKTPcOm-29" edge="1">
                    <mxGeometry relative="1" as="geometry">
                        <Array as="points">
                            <mxPoint x="925" y="-170"/>
                            <mxPoint x="85" y="-170"/>
                        </Array>
                    </mxGeometry>
                </mxCell>
                <mxCell id="lJupcZGPIyBvHbKTPcOm-74" style="edgeStyle=orthogonalEdgeStyle;html=1;entryX=1;entryY=0.5;entryDx=0;entryDy=0;exitX=0.5;exitY=0;exitDx=0;exitDy=0;" parent="1" source="lJupcZGPIyBvHbKTPcOm-76" target="lJupcZGPIyBvHbKTPcOm-73" edge="1">
                    <mxGeometry relative="1" as="geometry">
                        <Array as="points">
                            <mxPoint x="985" y="-15"/>
                            <mxPoint x="800" y="-15"/>
                            <mxPoint x="800" y="35"/>
                        </Array>
                    </mxGeometry>
                </mxCell>
                <mxCell id="lJupcZGPIyBvHbKTPcOm-62" value="Verifier" style="shape=umlActor;verticalLabelPosition=bottom;verticalAlign=top;html=1;outlineConnect=0;" parent="1" vertex="1">
                    <mxGeometry x="910" y="20" width="30" height="60" as="geometry"/>
                </mxCell>
                <mxCell id="lJupcZGPIyBvHbKTPcOm-64" value="(7)JWTを発行するための公開鍵を通知" style="text;html=1;align=center;verticalAlign=middle;resizable=0;points=[];autosize=1;strokeColor=none;fillColor=none;" parent="1" vertex="1">
                    <mxGeometry x="705" y="140" width="230" height="30" as="geometry"/>
                </mxCell>
                <mxCell id="lJupcZGPIyBvHbKTPcOm-66" value="(8)Verifierの公開鍵をDID Documentに関連付け" style="text;html=1;align=center;verticalAlign=middle;resizable=0;points=[];autosize=1;strokeColor=none;fillColor=none;" parent="1" vertex="1">
                    <mxGeometry x="145" y="-115" width="270" height="30" as="geometry"/>
                </mxCell>
                <mxCell id="lJupcZGPIyBvHbKTPcOm-68" value="(6)DID Documentのアドレスを通知" style="text;html=1;align=center;verticalAlign=middle;resizable=0;points=[];autosize=1;strokeColor=none;fillColor=none;" parent="1" vertex="1">
                    <mxGeometry x="715" y="95" width="210" height="30" as="geometry"/>
                </mxCell>
                <mxCell id="lJupcZGPIyBvHbKTPcOm-71" value="&lt;div style=&quot;text-align: left;&quot;&gt;&lt;span style=&quot;background-color: initial;&quot;&gt;(9)DID DocumentをBC経由で参照&lt;/span&gt;&lt;/div&gt;&lt;div style=&quot;text-align: left;&quot;&gt;&lt;span style=&quot;background-color: initial;&quot;&gt;VCの保存場所のURLが記載されている&lt;/span&gt;&lt;/div&gt;" style="text;html=1;align=center;verticalAlign=middle;resizable=0;points=[];autosize=1;strokeColor=none;fillColor=none;" parent="1" vertex="1">
                    <mxGeometry x="375" y="-210" width="230" height="40" as="geometry"/>
                </mxCell>
                <mxCell id="lJupcZGPIyBvHbKTPcOm-73" value="" style="fillColor=none;strokeColor=#5A6C86;dashed=1;verticalAlign=top;fontStyle=0;fontColor=#5A6C86;" parent="1" vertex="1">
                    <mxGeometry x="620" y="-30" width="160" height="130" as="geometry"/>
                </mxCell>
                <mxCell id="lJupcZGPIyBvHbKTPcOm-72" value="Amazon S3" style="sketch=0;points=[[0,0,0],[0.25,0,0],[0.5,0,0],[0.75,0,0],[1,0,0],[0,1,0],[0.25,1,0],[0.5,1,0],[0.75,1,0],[1,1,0],[0,0.25,0],[0,0.5,0],[0,0.75,0],[1,0.25,0],[1,0.5,0],[1,0.75,0]];outlineConnect=0;fontColor=#232F3E;gradientColor=#60A337;gradientDirection=north;fillColor=#277116;strokeColor=#ffffff;dashed=0;verticalLabelPosition=bottom;verticalAlign=top;align=center;html=1;fontSize=12;fontStyle=0;aspect=fixed;shape=mxgraph.aws4.resourceIcon;resIcon=mxgraph.aws4.s3;" parent="1" vertex="1">
                    <mxGeometry x="730" y="50" width="30" height="30" as="geometry"/>
                </mxCell>
                <mxCell id="lJupcZGPIyBvHbKTPcOm-75" value="(11)Access to VC" style="text;html=1;align=center;verticalAlign=middle;resizable=0;points=[];autosize=1;strokeColor=none;fillColor=none;" parent="1" vertex="1">
                    <mxGeometry x="800" y="-10" width="120" height="30" as="geometry"/>
                </mxCell>
                <mxCell id="lJupcZGPIyBvHbKTPcOm-76" value="秘密鍵" style="shape=image;html=1;verticalAlign=top;verticalLabelPosition=bottom;labelBackgroundColor=#ffffff;imageAspect=0;aspect=fixed;image=https://cdn0.iconfinder.com/data/icons/phosphor-fill-vol-3/256/key-fill-128.png" parent="1" vertex="1">
                    <mxGeometry x="970" y="-5" width="30" height="30" as="geometry"/>
                </mxCell>
                <mxCell id="lJupcZGPIyBvHbKTPcOm-79" value="公開鍵" style="shape=image;html=1;verticalAlign=top;verticalLabelPosition=bottom;labelBackgroundColor=#ffffff;imageAspect=0;aspect=fixed;image=https://cdn0.iconfinder.com/data/icons/phosphor-fill-vol-3/256/key-fill-128.png;imageBackground=none;imageBorder=none;" parent="1" vertex="1">
                    <mxGeometry x="970" y="50" width="30" height="30" as="geometry"/>
                </mxCell>
                <mxCell id="lJupcZGPIyBvHbKTPcOm-81" value="(10)秘密鍵でJWTに署名する" style="text;html=1;align=center;verticalAlign=middle;resizable=0;points=[];autosize=1;strokeColor=none;fillColor=none;" parent="1" vertex="1">
                    <mxGeometry x="920" y="-50" width="180" height="30" as="geometry"/>
                </mxCell>
                <mxCell id="lJupcZGPIyBvHbKTPcOm-84" value="" style="shape=curlyBracket;whiteSpace=wrap;html=1;rounded=1;flipH=1;labelPosition=right;verticalLabelPosition=middle;align=left;verticalAlign=middle;fillColor=none;rotation=-90;" parent="1" vertex="1">
                    <mxGeometry x="204" y="340" width="20" height="248" as="geometry"/>
                </mxCell>
                <mxCell id="lJupcZGPIyBvHbKTPcOm-87" value="&lt;div style=&quot;background-color: rgb(255, 255, 255); font-family: Menlo, Monaco, &amp;quot;Courier New&amp;quot;, monospace; line-height: 18px; font-size: 8px;&quot;&gt;&lt;font style=&quot;font-size: 8px;&quot;&gt;{&lt;/font&gt;&lt;/div&gt;&lt;div style=&quot;background-color: rgb(255, 255, 255); font-family: Menlo, Monaco, &amp;quot;Courier New&amp;quot;, monospace; line-height: 18px; font-size: 8px;&quot;&gt;&lt;font style=&quot;font-size: 8px;&quot;&gt;&lt;span style=&quot;color: #a31515;&quot;&gt;&amp;nbsp; &quot;@context&quot;&lt;/span&gt;:&lt;/font&gt;&lt;/div&gt;&lt;div style=&quot;background-color: rgb(255, 255, 255); font-family: Menlo, Monaco, &amp;quot;Courier New&amp;quot;, monospace; line-height: 18px; font-size: 8px;&quot;&gt;&lt;font style=&quot;font-size: 8px;&quot;&gt;&amp;nbsp; [&lt;/font&gt;&lt;/div&gt;&lt;div style=&quot;background-color: rgb(255, 255, 255); font-family: Menlo, Monaco, &amp;quot;Courier New&amp;quot;, monospace; line-height: 18px; font-size: 8px;&quot;&gt;&lt;font style=&quot;font-size: 8px;&quot;&gt;&lt;span style=&quot;color: #a31515;&quot;&gt;&amp;nbsp; &amp;nbsp; &quot;https://www.w3.org/2018/credentials/v1&quot;&lt;/span&gt;,&lt;/font&gt;&lt;/div&gt;&lt;div style=&quot;background-color: rgb(255, 255, 255); font-family: Menlo, Monaco, &amp;quot;Courier New&amp;quot;, monospace; line-height: 18px; font-size: 8px;&quot;&gt;&lt;font style=&quot;font-size: 8px;&quot;&gt;&amp;nbsp; &amp;nbsp; {&lt;/font&gt;&lt;/div&gt;&lt;div style=&quot;background-color: rgb(255, 255, 255); font-family: Menlo, Monaco, &amp;quot;Courier New&amp;quot;, monospace; line-height: 18px; font-size: 8px;&quot;&gt;&lt;font style=&quot;font-size: 8px;&quot;&gt;&lt;span style=&quot;color: #a31515;&quot;&gt;&amp;nbsp; &amp;nbsp; &amp;nbsp; &quot;name&quot;&lt;/span&gt;:&lt;span style=&quot;color: #a31515;&quot;&gt;&quot;https://schema.org/name&quot;&lt;/span&gt;,&lt;/font&gt;&lt;/div&gt;&lt;div style=&quot;background-color: rgb(255, 255, 255); font-family: Menlo, Monaco, &amp;quot;Courier New&amp;quot;, monospace; line-height: 18px; font-size: 8px;&quot;&gt;&lt;font style=&quot;font-size: 8px;&quot;&gt;&lt;span style=&quot;color: #a31515;&quot;&gt;&amp;nbsp; &amp;nbsp; &amp;nbsp; &quot;address&quot;&lt;/span&gt;:&lt;span style=&quot;color: #a31515;&quot;&gt;&quot;https://schema.org/Text&quot;&lt;/span&gt;,&lt;/font&gt;&lt;/div&gt;&lt;div style=&quot;background-color: rgb(255, 255, 255); font-family: Menlo, Monaco, &amp;quot;Courier New&amp;quot;, monospace; line-height: 18px; font-size: 8px;&quot;&gt;&lt;font style=&quot;font-size: 8px;&quot;&gt;&lt;span style=&quot;color: #a31515;&quot;&gt;&amp;nbsp; &amp;nbsp; &amp;nbsp; &quot;phoneNumber&quot;&lt;/span&gt;:&lt;span style=&quot;color: #a31515;&quot;&gt;&quot;https://schema.org/telephone&quot;&lt;/span&gt;&lt;/font&gt;&lt;/div&gt;&lt;div style=&quot;background-color: rgb(255, 255, 255); font-family: Menlo, Monaco, &amp;quot;Courier New&amp;quot;, monospace; line-height: 18px; font-size: 8px;&quot;&gt;&lt;font style=&quot;font-size: 8px;&quot;&gt;&amp;nbsp; &amp;nbsp; },&lt;/font&gt;&lt;/div&gt;&lt;div style=&quot;background-color: rgb(255, 255, 255); font-family: Menlo, Monaco, &amp;quot;Courier New&amp;quot;, monospace; line-height: 18px; font-size: 8px;&quot;&gt;&lt;span style=&quot;color: #a31515;&quot;&gt;&lt;font style=&quot;font-size: 8px;&quot;&gt;&amp;nbsp; &amp;nbsp; &quot;https://w3id.org/blockcerts/v3&quot;&lt;/font&gt;&lt;/span&gt;&lt;/div&gt;&lt;div style=&quot;background-color: rgb(255, 255, 255); font-family: Menlo, Monaco, &amp;quot;Courier New&amp;quot;, monospace; line-height: 18px; font-size: 8px;&quot;&gt;&lt;font style=&quot;font-size: 8px;&quot;&gt;&amp;nbsp; ],&lt;/font&gt;&lt;/div&gt;&lt;div style=&quot;background-color: rgb(255, 255, 255); font-family: Menlo, Monaco, &amp;quot;Courier New&amp;quot;, monospace; line-height: 18px; font-size: 8px;&quot;&gt;&lt;font style=&quot;font-size: 8px;&quot;&gt;&lt;span style=&quot;color: #a31515;&quot;&gt;&amp;nbsp; &quot;id&quot;&lt;/span&gt;:&lt;span style=&quot;color: #a31515;&quot;&gt;&quot;xxxxxxxx&quot;&lt;/span&gt;,&lt;/font&gt;&lt;/div&gt;&lt;div style=&quot;background-color: rgb(255, 255, 255); font-family: Menlo, Monaco, &amp;quot;Courier New&amp;quot;, monospace; line-height: 18px; font-size: 8px;&quot;&gt;&lt;font style=&quot;font-size: 8px;&quot;&gt;&lt;span style=&quot;color: #a31515;&quot;&gt;&amp;nbsp; &quot;type&quot;&lt;/span&gt;:&lt;/font&gt;&lt;/div&gt;&lt;div style=&quot;background-color: rgb(255, 255, 255); font-family: Menlo, Monaco, &amp;quot;Courier New&amp;quot;, monospace; line-height: 18px; font-size: 8px;&quot;&gt;&lt;font style=&quot;font-size: 8px;&quot;&gt;&amp;nbsp; [&lt;/font&gt;&lt;/div&gt;&lt;div style=&quot;background-color: rgb(255, 255, 255); font-family: Menlo, Monaco, &amp;quot;Courier New&amp;quot;, monospace; line-height: 18px; font-size: 8px;&quot;&gt;&lt;font style=&quot;font-size: 8px;&quot;&gt;&lt;span style=&quot;color: #a31515;&quot;&gt;&amp;nbsp; &amp;nbsp; &quot;VerifiableCredential&quot;&lt;/span&gt;,&lt;/font&gt;&lt;/div&gt;&lt;div style=&quot;background-color: rgb(255, 255, 255); font-family: Menlo, Monaco, &amp;quot;Courier New&amp;quot;, monospace; line-height: 18px; font-size: 8px;&quot;&gt;&lt;span style=&quot;color: #a31515;&quot;&gt;&lt;font style=&quot;font-size: 8px;&quot;&gt;&amp;nbsp; &amp;nbsp; &quot;BlockcertsCredential&quot;&lt;/font&gt;&lt;/span&gt;&lt;/div&gt;&lt;div style=&quot;background-color: rgb(255, 255, 255); font-family: Menlo, Monaco, &amp;quot;Courier New&amp;quot;, monospace; line-height: 18px; font-size: 8px;&quot;&gt;&lt;font style=&quot;font-size: 8px;&quot;&gt;&amp;nbsp; ],&lt;/font&gt;&lt;/div&gt;&lt;div style=&quot;background-color: rgb(255, 255, 255); font-family: Menlo, Monaco, &amp;quot;Courier New&amp;quot;, monospace; line-height: 18px; font-size: 8px;&quot;&gt;&lt;font style=&quot;font-size: 8px;&quot;&gt;&lt;span style=&quot;color: #a31515;&quot;&gt;&amp;nbsp; &quot;issuer&quot;&lt;/span&gt;:&lt;span style=&quot;color: #a31515;&quot;&gt;&quot;https://xxx.net/issuer-profile.json&quot;&lt;/span&gt;,&lt;/font&gt;&lt;/div&gt;&lt;div style=&quot;background-color: rgb(255, 255, 255); font-family: Menlo, Monaco, &amp;quot;Courier New&amp;quot;, monospace; line-height: 18px; font-size: 8px;&quot;&gt;&lt;font style=&quot;font-size: 8px;&quot;&gt;&lt;span style=&quot;color: #a31515;&quot;&gt;&amp;nbsp; &quot;issuanceDate&quot;&lt;/span&gt;:&lt;span style=&quot;color: #a31515;&quot;&gt;&quot;2022-01-01T19:33:24Z&quot;&lt;/span&gt;,&lt;/font&gt;&lt;/div&gt;&lt;div style=&quot;background-color: rgb(255, 255, 255); font-family: Menlo, Monaco, &amp;quot;Courier New&amp;quot;, monospace; line-height: 18px; font-size: 8px;&quot;&gt;&lt;font style=&quot;font-size: 8px;&quot;&gt;&lt;span style=&quot;color: #a31515;&quot;&gt;&amp;nbsp; &quot;credentialSubject&quot;&lt;/span&gt;:&lt;/font&gt;&lt;/div&gt;&lt;div style=&quot;background-color: rgb(255, 255, 255); font-family: Menlo, Monaco, &amp;quot;Courier New&amp;quot;, monospace; line-height: 18px; font-size: 8px;&quot;&gt;&lt;font style=&quot;font-size: 8px;&quot;&gt;&amp;nbsp; {&lt;/font&gt;&lt;/div&gt;&lt;div style=&quot;background-color: rgb(255, 255, 255); font-family: Menlo, Monaco, &amp;quot;Courier New&amp;quot;, monospace; line-height: 18px; font-size: 8px;&quot;&gt;&lt;font style=&quot;font-size: 8px;&quot;&gt;&lt;span style=&quot;color: #a31515;&quot;&gt;&amp;nbsp; &amp;nbsp; &quot;name&quot;&lt;/span&gt;:&lt;span style=&quot;color: #a31515;&quot;&gt;&quot;xxx xxx&quot;&lt;/span&gt;,&lt;/font&gt;&lt;/div&gt;&lt;div style=&quot;background-color: rgb(255, 255, 255); font-family: Menlo, Monaco, &amp;quot;Courier New&amp;quot;, monospace; line-height: 18px; font-size: 8px;&quot;&gt;&lt;font style=&quot;font-size: 8px;&quot;&gt;&lt;span style=&quot;color: #a31515;&quot;&gt;&amp;nbsp; &amp;nbsp; &quot;address&quot;&lt;/span&gt;:&lt;span style=&quot;color: #a31515;&quot;&gt;&quot;xxx xxxx&quot;&lt;/span&gt;,&lt;/font&gt;&lt;/div&gt;&lt;div style=&quot;background-color: rgb(255, 255, 255); font-family: Menlo, Monaco, &amp;quot;Courier New&amp;quot;, monospace; line-height: 18px; font-size: 8px;&quot;&gt;&lt;font style=&quot;font-size: 8px;&quot;&gt;&lt;span style=&quot;color: #a31515;&quot;&gt;&amp;nbsp; &amp;nbsp; &quot;phoneNumber&quot;&lt;/span&gt;:&lt;span style=&quot;color: #a31515;&quot;&gt;&quot;000-0000-0000&quot;&lt;/span&gt;&lt;/font&gt;&lt;/div&gt;&lt;div style=&quot;background-color: rgb(255, 255, 255); font-family: Menlo, Monaco, &amp;quot;Courier New&amp;quot;, monospace; line-height: 18px; font-size: 8px;&quot;&gt;&lt;font style=&quot;font-size: 8px;&quot;&gt;&amp;nbsp; },&lt;/font&gt;&lt;/div&gt;&lt;div style=&quot;background-color: rgb(255, 255, 255); font-family: Menlo, Monaco, &amp;quot;Courier New&amp;quot;, monospace; line-height: 18px; font-size: 8px;&quot;&gt;&lt;font style=&quot;font-size: 8px;&quot;&gt;&lt;span style=&quot;color: #a31515;&quot;&gt;&amp;nbsp; &quot;proof&quot;&lt;/span&gt;:&lt;/font&gt;&lt;/div&gt;&lt;div style=&quot;background-color: rgb(255, 255, 255); font-family: Menlo, Monaco, &amp;quot;Courier New&amp;quot;, monospace; line-height: 18px; font-size: 8px;&quot;&gt;&lt;font style=&quot;font-size: 8px;&quot;&gt;&amp;nbsp; {&lt;/font&gt;&lt;/div&gt;&lt;div style=&quot;background-color: rgb(255, 255, 255); font-family: Menlo, Monaco, &amp;quot;Courier New&amp;quot;, monospace; line-height: 18px; font-size: 8px;&quot;&gt;&lt;font style=&quot;font-size: 8px;&quot;&gt;&lt;span style=&quot;color: #a31515;&quot;&gt;&amp;nbsp; &amp;nbsp; &quot;type&quot;&lt;/span&gt;:&lt;span style=&quot;color: #a31515;&quot;&gt;&quot;MerkleProof2019&quot;&lt;/span&gt;,&lt;/font&gt;&lt;/div&gt;&lt;div style=&quot;background-color: rgb(255, 255, 255); font-family: Menlo, Monaco, &amp;quot;Courier New&amp;quot;, monospace; line-height: 18px; font-size: 8px;&quot;&gt;&lt;font style=&quot;font-size: 8px;&quot;&gt;&lt;span style=&quot;color: #a31515;&quot;&gt;&amp;nbsp; &amp;nbsp; &quot;created&quot;&lt;/span&gt;:&lt;span style=&quot;color: #a31515;&quot;&gt;&quot;2023-01-12T01:38:29.961867&quot;&lt;/span&gt;,&lt;/font&gt;&lt;/div&gt;&lt;div style=&quot;background-color: rgb(255, 255, 255); font-family: Menlo, Monaco, &amp;quot;Courier New&amp;quot;, monospace; line-height: 18px; font-size: 8px;&quot;&gt;&lt;font style=&quot;font-size: 8px;&quot;&gt;&lt;span style=&quot;color: #a31515;&quot;&gt;&amp;nbsp; &amp;nbsp; &quot;proofValue&quot;&lt;/span&gt;:&lt;span style=&quot;color: #a31515;&quot;&gt;&quot;z7veGu1qoKR3AS.....&quot;&lt;/span&gt;,&lt;/font&gt;&lt;/div&gt;&lt;div style=&quot;background-color: rgb(255, 255, 255); font-family: Menlo, Monaco, &amp;quot;Courier New&amp;quot;, monospace; line-height: 18px; font-size: 8px;&quot;&gt;&lt;font style=&quot;font-size: 8px;&quot;&gt;&lt;span style=&quot;color: #a31515;&quot;&gt;&amp;nbsp; &amp;nbsp; &quot;proofPurpose&quot;&lt;/span&gt;:&lt;span style=&quot;color: #a31515;&quot;&gt;&quot;assertionMethod&quot;&lt;/span&gt;,&lt;/font&gt;&lt;/div&gt;&lt;div style=&quot;background-color: rgb(255, 255, 255); font-family: Menlo, Monaco, &amp;quot;Courier New&amp;quot;, monospace; line-height: 18px; font-size: 8px;&quot;&gt;&lt;font style=&quot;font-size: 8px;&quot;&gt;&lt;span style=&quot;color: #a31515;&quot;&gt;&amp;nbsp; &amp;nbsp; &quot;verificationMethod&quot;&lt;/span&gt;:&lt;span style=&quot;color: #a31515;&quot;&gt;&quot;did:ethr:0x5:0xD9bB04...&quot;&lt;/span&gt;&lt;/font&gt;&lt;/div&gt;&lt;div style=&quot;background-color: rgb(255, 255, 255); font-family: Menlo, Monaco, &amp;quot;Courier New&amp;quot;, monospace; line-height: 18px; font-size: 8px;&quot;&gt;&lt;font style=&quot;font-size: 8px;&quot;&gt;&amp;nbsp; }&lt;/font&gt;&lt;/div&gt;&lt;div style=&quot;background-color: rgb(255, 255, 255); font-family: Menlo, Monaco, &amp;quot;Courier New&amp;quot;, monospace; line-height: 18px; font-size: 8px;&quot;&gt;&lt;font style=&quot;font-size: 8px;&quot;&gt;&amp;nbsp;}&lt;/font&gt;&lt;/div&gt;&lt;div style=&quot;background-color: rgb(255, 255, 255); font-family: Menlo, Monaco, &amp;quot;Courier New&amp;quot;, monospace; line-height: 18px; font-size: 8px;&quot;&gt;&lt;br&gt;&lt;/div&gt;" style="text;html=1;align=left;verticalAlign=middle;resizable=0;points=[];autosize=1;strokeColor=none;fillColor=none;" parent="1" vertex="1">
                    <mxGeometry x="90" y="470" width="270" height="640" as="geometry"/>
                </mxCell>
                <mxCell id="FYPhk_WvGFd737iHavtH-1" value="(3)オフチェーンで送付" style="text;html=1;align=center;verticalAlign=middle;resizable=0;points=[];autosize=1;strokeColor=none;fillColor=none;" parent="1" vertex="1">
                    <mxGeometry x="229" y="35" width="150" height="30" as="geometry"/>
                </mxCell>
                <mxCell id="EhycKnHpYyYFxO_DQDV1-1" value="Issuer" style="shape=umlActor;verticalLabelPosition=bottom;verticalAlign=top;html=1;outlineConnect=0;" parent="1" vertex="1">
                    <mxGeometry x="10" y="190" width="30" height="60" as="geometry"/>
                </mxCell>
                <mxCell id="EhycKnHpYyYFxO_DQDV1-5" style="edgeStyle=none;html=1;" parent="1" source="EhycKnHpYyYFxO_DQDV1-2" target="EhycKnHpYyYFxO_DQDV1-3" edge="1">
                    <mxGeometry relative="1" as="geometry"/>
                </mxCell>
                <mxCell id="EhycKnHpYyYFxO_DQDV1-6" style="edgeStyle=none;html=1;" parent="1" source="EhycKnHpYyYFxO_DQDV1-2" target="EhycKnHpYyYFxO_DQDV1-4" edge="1">
                    <mxGeometry relative="1" as="geometry"/>
                </mxCell>
                <mxCell id="EhycKnHpYyYFxO_DQDV1-2" value="秘密鍵" style="shape=image;html=1;verticalAlign=top;verticalLabelPosition=bottom;labelBackgroundColor=#ffffff;imageAspect=0;aspect=fixed;image=https://cdn0.iconfinder.com/data/icons/phosphor-fill-vol-3/256/key-fill-128.png" parent="1" vertex="1">
                    <mxGeometry x="70" y="200" width="30" height="30" as="geometry"/>
                </mxCell>
                <mxCell id="EhycKnHpYyYFxO_DQDV1-7" style="edgeStyle=none;html=1;exitX=1;exitY=0.5;exitDx=0;exitDy=0;" parent="1" source="EhycKnHpYyYFxO_DQDV1-3" edge="1">
                    <mxGeometry relative="1" as="geometry">
                        <mxPoint x="400" y="50" as="targetPoint"/>
                    </mxGeometry>
                </mxCell>
                <mxCell id="EhycKnHpYyYFxO_DQDV1-3" value="VC" style="rounded=1;whiteSpace=wrap;html=1;" parent="1" vertex="1">
                    <mxGeometry x="184" y="190" width="60" height="30" as="geometry"/>
                </mxCell>
                <mxCell id="EhycKnHpYyYFxO_DQDV1-8" style="edgeStyle=none;html=1;" parent="1" source="EhycKnHpYyYFxO_DQDV1-4" edge="1">
                    <mxGeometry relative="1" as="geometry">
                        <mxPoint x="400" y="180" as="targetPoint"/>
                    </mxGeometry>
                </mxCell>
                <mxCell id="EhycKnHpYyYFxO_DQDV1-4" value="VC" style="rounded=1;whiteSpace=wrap;html=1;" parent="1" vertex="1">
                    <mxGeometry x="184" y="220" width="60" height="30" as="geometry"/>
                </mxCell>
            </root>
        </mxGraphModel>
    </diagram>
    <diagram id="uk0LxTTWJaZyqCevSQQc" name="Page-3">
        <mxGraphModel dx="1313" dy="629" grid="1" gridSize="10" guides="1" tooltips="1" connect="1" arrows="1" fold="1" page="1" pageScale="1" pageWidth="850" pageHeight="1100" math="0" shadow="0">
            <root>
                <mxCell id="0"/>
                <mxCell id="1" parent="0"/>
                <mxCell id="8F49YiNU7YkZaEtFaKgx-8" style="edgeStyle=none;html=1;" edge="1" parent="1" source="8F49YiNU7YkZaEtFaKgx-1" target="8F49YiNU7YkZaEtFaKgx-2">
                    <mxGeometry relative="1" as="geometry"/>
                </mxCell>
                <mxCell id="8F49YiNU7YkZaEtFaKgx-1" value="Amazon API Gateway" style="sketch=0;points=[[0,0,0],[0.25,0,0],[0.5,0,0],[0.75,0,0],[1,0,0],[0,1,0],[0.25,1,0],[0.5,1,0],[0.75,1,0],[1,1,0],[0,0.25,0],[0,0.5,0],[0,0.75,0],[1,0.25,0],[1,0.5,0],[1,0.75,0]];outlineConnect=0;fontColor=#232F3E;gradientColor=#FF4F8B;gradientDirection=north;fillColor=#BC1356;strokeColor=#ffffff;dashed=0;verticalLabelPosition=bottom;verticalAlign=top;align=center;html=1;fontSize=12;fontStyle=0;aspect=fixed;shape=mxgraph.aws4.resourceIcon;resIcon=mxgraph.aws4.api_gateway;" vertex="1" parent="1">
                    <mxGeometry x="380" y="290" width="78" height="78" as="geometry"/>
                </mxCell>
                <mxCell id="8F49YiNU7YkZaEtFaKgx-10" style="edgeStyle=none;html=1;" edge="1" parent="1" source="8F49YiNU7YkZaEtFaKgx-2" target="8F49YiNU7YkZaEtFaKgx-4">
                    <mxGeometry relative="1" as="geometry"/>
                </mxCell>
                <mxCell id="8F49YiNU7YkZaEtFaKgx-13" style="edgeStyle=none;html=1;exitX=0;exitY=0.75;exitDx=0;exitDy=0;exitPerimeter=0;entryX=1;entryY=0.75;entryDx=0;entryDy=0;entryPerimeter=0;" edge="1" parent="1" source="8F49YiNU7YkZaEtFaKgx-2" target="8F49YiNU7YkZaEtFaKgx-1">
                    <mxGeometry relative="1" as="geometry"/>
                </mxCell>
                <mxCell id="8F49YiNU7YkZaEtFaKgx-15" style="edgeStyle=none;html=1;" edge="1" parent="1" source="8F49YiNU7YkZaEtFaKgx-2" target="8F49YiNU7YkZaEtFaKgx-3">
                    <mxGeometry relative="1" as="geometry"/>
                </mxCell>
                <mxCell id="8F49YiNU7YkZaEtFaKgx-2" value="AWS Lambda" style="sketch=0;points=[[0,0,0],[0.25,0,0],[0.5,0,0],[0.75,0,0],[1,0,0],[0,1,0],[0.25,1,0],[0.5,1,0],[0.75,1,0],[1,1,0],[0,0.25,0],[0,0.5,0],[0,0.75,0],[1,0.25,0],[1,0.5,0],[1,0.75,0]];outlineConnect=0;fontColor=#232F3E;gradientColor=#F78E04;gradientDirection=north;fillColor=#D05C17;strokeColor=#ffffff;dashed=0;verticalLabelPosition=bottom;verticalAlign=top;align=center;html=1;fontSize=12;fontStyle=0;aspect=fixed;shape=mxgraph.aws4.resourceIcon;resIcon=mxgraph.aws4.lambda;" vertex="1" parent="1">
                    <mxGeometry x="560" y="290" width="78" height="78" as="geometry"/>
                </mxCell>
                <mxCell id="8F49YiNU7YkZaEtFaKgx-3" value="Amazon S3" style="sketch=0;points=[[0,0,0],[0.25,0,0],[0.5,0,0],[0.75,0,0],[1,0,0],[0,1,0],[0.25,1,0],[0.5,1,0],[0.75,1,0],[1,1,0],[0,0.25,0],[0,0.5,0],[0,0.75,0],[1,0.25,0],[1,0.5,0],[1,0.75,0]];outlineConnect=0;fontColor=#232F3E;gradientColor=#60A337;gradientDirection=north;fillColor=#277116;strokeColor=#ffffff;dashed=0;verticalLabelPosition=bottom;verticalAlign=top;align=center;html=1;fontSize=12;fontStyle=0;aspect=fixed;shape=mxgraph.aws4.resourceIcon;resIcon=mxgraph.aws4.s3;" vertex="1" parent="1">
                    <mxGeometry x="560" y="120" width="78" height="78" as="geometry"/>
                </mxCell>
                <mxCell id="8F49YiNU7YkZaEtFaKgx-4" value="Amazon Managed Blockchain" style="sketch=0;points=[[0,0,0],[0.25,0,0],[0.5,0,0],[0.75,0,0],[1,0,0],[0,1,0],[0.25,1,0],[0.5,1,0],[0.75,1,0],[1,1,0],[0,0.25,0],[0,0.5,0],[0,0.75,0],[1,0.25,0],[1,0.5,0],[1,0.75,0]];outlineConnect=0;fontColor=#232F3E;gradientColor=#F78E04;gradientDirection=north;fillColor=#D05C17;strokeColor=#ffffff;dashed=0;verticalLabelPosition=bottom;verticalAlign=top;align=center;html=1;fontSize=12;fontStyle=0;aspect=fixed;shape=mxgraph.aws4.resourceIcon;resIcon=mxgraph.aws4.managed_blockchain;" vertex="1" parent="1">
                    <mxGeometry x="820" y="287.5" width="78" height="78" as="geometry"/>
                </mxCell>
                <mxCell id="8F49YiNU7YkZaEtFaKgx-6" style="edgeStyle=none;html=1;" edge="1" parent="1" target="8F49YiNU7YkZaEtFaKgx-1">
                    <mxGeometry relative="1" as="geometry">
                        <mxPoint x="150" y="330" as="sourcePoint"/>
                    </mxGeometry>
                </mxCell>
                <mxCell id="8F49YiNU7YkZaEtFaKgx-17" style="edgeStyle=orthogonalEdgeStyle;html=1;" edge="1" parent="1" source="8F49YiNU7YkZaEtFaKgx-5" target="8F49YiNU7YkZaEtFaKgx-3">
                    <mxGeometry relative="1" as="geometry">
                        <Array as="points">
                            <mxPoint x="117" y="160"/>
                        </Array>
                    </mxGeometry>
                </mxCell>
                <mxCell id="8F49YiNU7YkZaEtFaKgx-5" value="Verifier" style="sketch=0;outlineConnect=0;fontColor=#232F3E;gradientColor=none;fillColor=#232F3D;strokeColor=none;dashed=0;verticalLabelPosition=bottom;verticalAlign=top;align=center;html=1;fontSize=12;fontStyle=0;aspect=fixed;pointerEvents=1;shape=mxgraph.aws4.user;" vertex="1" parent="1">
                    <mxGeometry x="90" y="300" width="53" height="53" as="geometry"/>
                </mxCell>
                <mxCell id="8F49YiNU7YkZaEtFaKgx-7" value="3) get verifiable credential&lt;br&gt;with JWT" style="text;html=1;align=center;verticalAlign=middle;resizable=0;points=[];autosize=1;strokeColor=none;fillColor=none;" vertex="1" parent="1">
                    <mxGeometry x="170" y="295" width="160" height="40" as="geometry"/>
                </mxCell>
                <mxCell id="8F49YiNU7YkZaEtFaKgx-9" value="5) Verify JWT" style="text;html=1;align=center;verticalAlign=middle;resizable=0;points=[];autosize=1;strokeColor=none;fillColor=none;" vertex="1" parent="1">
                    <mxGeometry x="570" y="383" width="100" height="30" as="geometry"/>
                </mxCell>
                <mxCell id="8F49YiNU7YkZaEtFaKgx-11" value="4)Get DID Document" style="text;html=1;align=center;verticalAlign=middle;resizable=0;points=[];autosize=1;strokeColor=none;fillColor=none;" vertex="1" parent="1">
                    <mxGeometry x="650" y="300" width="140" height="30" as="geometry"/>
                </mxCell>
                <mxCell id="8F49YiNU7YkZaEtFaKgx-12" value="7) Return S3 Signed URL" style="text;html=1;align=center;verticalAlign=middle;resizable=0;points=[];autosize=1;strokeColor=none;fillColor=none;" vertex="1" parent="1">
                    <mxGeometry x="170" y="353" width="160" height="30" as="geometry"/>
                </mxCell>
                <mxCell id="8F49YiNU7YkZaEtFaKgx-14" style="edgeStyle=none;html=1;exitX=0;exitY=0.75;exitDx=0;exitDy=0;exitPerimeter=0;" edge="1" parent="1">
                    <mxGeometry relative="1" as="geometry">
                        <mxPoint x="380" y="350" as="sourcePoint"/>
                        <mxPoint x="150" y="350" as="targetPoint"/>
                    </mxGeometry>
                </mxCell>
                <mxCell id="8F49YiNU7YkZaEtFaKgx-16" value="6) Get S3 Signed URL" style="text;html=1;align=center;verticalAlign=middle;resizable=0;points=[];autosize=1;strokeColor=none;fillColor=none;" vertex="1" parent="1">
                    <mxGeometry x="600" y="235" width="140" height="30" as="geometry"/>
                </mxCell>
                <mxCell id="8F49YiNU7YkZaEtFaKgx-19" value="8) Download Verifiable Credential" style="text;html=1;align=center;verticalAlign=middle;resizable=0;points=[];autosize=1;strokeColor=none;fillColor=none;" vertex="1" parent="1">
                    <mxGeometry x="300" y="135" width="200" height="30" as="geometry"/>
                </mxCell>
                <mxCell id="8F49YiNU7YkZaEtFaKgx-25" style="edgeStyle=orthogonalEdgeStyle;html=1;" edge="1" parent="1" source="8F49YiNU7YkZaEtFaKgx-20" target="8F49YiNU7YkZaEtFaKgx-3">
                    <mxGeometry relative="1" as="geometry">
                        <Array as="points">
                            <mxPoint x="599" y="90"/>
                        </Array>
                    </mxGeometry>
                </mxCell>
                <mxCell id="8F49YiNU7YkZaEtFaKgx-20" value="Holder" style="sketch=0;outlineConnect=0;fontColor=#232F3E;gradientColor=none;fillColor=#232F3D;strokeColor=none;dashed=0;verticalLabelPosition=bottom;verticalAlign=top;align=center;html=1;fontSize=12;fontStyle=0;aspect=fixed;pointerEvents=1;shape=mxgraph.aws4.user;" vertex="1" parent="1">
                    <mxGeometry x="90" y="40" width="53" height="53" as="geometry"/>
                </mxCell>
                <mxCell id="8F49YiNU7YkZaEtFaKgx-22" style="edgeStyle=orthogonalEdgeStyle;html=1;" edge="1" parent="1" source="8F49YiNU7YkZaEtFaKgx-20" target="8F49YiNU7YkZaEtFaKgx-4">
                    <mxGeometry relative="1" as="geometry">
                        <mxPoint x="323" y="486" as="sourcePoint"/>
                        <mxPoint x="425" y="486" as="targetPoint"/>
                    </mxGeometry>
                </mxCell>
                <mxCell id="8F49YiNU7YkZaEtFaKgx-23" value="2) Delegate Verifier's wallet address&lt;br&gt;to DID Document" style="text;html=1;align=center;verticalAlign=middle;resizable=0;points=[];autosize=1;strokeColor=none;fillColor=none;" vertex="1" parent="1">
                    <mxGeometry x="200" y="20" width="210" height="40" as="geometry"/>
                </mxCell>
                <mxCell id="8F49YiNU7YkZaEtFaKgx-26" value="1) Store Verifiable Credential" style="text;html=1;align=center;verticalAlign=middle;resizable=0;points=[];autosize=1;strokeColor=none;fillColor=none;" vertex="1" parent="1">
                    <mxGeometry x="600" y="90" width="180" height="30" as="geometry"/>
                </mxCell>
            </root>
        </mxGraphModel>
    </diagram>
</mxfile>